# Blender 5.2.1 LTS
# www.blender.org
mtllib Untitled.mtl
o Circle
v 0.000001 -0.000006 -77.828087
v -15.183505 -0.000006 -76.332642
v -29.783522 -0.000005 -71.903778
v -43.238968 -0.000005 -64.711685
v -55.032768 -0.000004 -55.032768
v -64.711685 -0.000003 -43.238968
v -71.903778 -0.000002 -29.783522
v -76.332642 -0.000001 -15.183505
v -77.828087 0.000000 0.000001
v -76.332642 0.000001 15.183508
v -71.903778 0.000002 29.783522
v -64.711685 0.000003 43.238968
v -55.032768 0.000004 55.032768
v -43.238968 0.000005 64.711685
v -29.783522 0.000005 71.903778
v -15.183505 0.000006 76.332642
v 0.000001 0.000006 77.828087
v 15.183508 0.000006 76.332642
v 29.783522 0.000005 71.903778
v 43.238968 0.000005 64.711685
v 55.032768 0.000004 55.032768
v 64.711685 0.000003 43.238968
v 71.903778 0.000002 29.783522
v 76.332642 0.000001 15.183508
v 77.828087 0.000000 0.000001
v 76.332642 -0.000001 -15.183505
v 71.903778 -0.000002 -29.783522
v 64.711685 -0.000003 -43.238968
v 55.032768 -0.000004 -55.032768
v 43.238968 -0.000005 -64.711685
v 29.783522 -0.000005 -71.903778
v 15.183508 -0.000006 -76.332642
v 0.000001 139.386185 -77.828094
v -15.183505 139.386185 -76.332649
v -29.783522 139.386185 -71.903786
v -43.238968 139.386185 -64.711693
v -55.032768 139.386185 -55.032780
v -64.711685 139.386185 -43.238979
v -71.903778 139.386185 -29.783533
v -76.332642 139.386185 -15.183516
v -77.828087 139.386185 -0.000010
v -76.332642 139.386185 15.183497
v -71.903778 139.386185 29.783510
v -64.711685 139.386185 43.238956
v -55.032768 139.386185 55.032757
v -43.238968 139.386185 64.711678
v -29.783522 139.386185 71.903770
v -15.183505 139.386185 76.332634
v 0.000001 139.386185 77.828079
v 15.183508 139.386185 76.332634
v 29.783522 139.386185 71.903770
v 43.238968 139.386185 64.711678
v 55.032768 139.386185 55.032757
v 64.711685 139.386185 43.238956
v 71.903778 139.386185 29.783510
v 76.332642 139.386185 15.183497
v 77.828087 139.386185 -0.000010
v 76.332642 139.386185 -15.183516
v 71.903778 139.386185 -29.783533
v 64.711685 139.386185 -43.238979
v 55.032768 139.386185 -55.032780
v 43.238968 139.386185 -64.711693
v 29.783522 139.386185 -71.903786
v 15.183508 139.386185 -76.332649
v 76.332642 69.693092 -15.183511
v 77.828087 69.693092 -0.000004
v -55.032768 69.693100 55.032764
v -64.711685 69.693092 43.238964
v 71.903778 69.693092 -29.783527
v -43.238968 69.693100 64.711678
v 64.711685 69.693092 -43.238972
v -29.783522 69.693100 71.903770
v -15.183505 69.693085 -76.332649
v 0.000001 69.693085 -77.828094
v 55.032768 69.693085 -55.032772
v -15.183505 69.693100 76.332634
v -29.783522 69.693085 -71.903786
v 43.238968 69.693085 -64.711693
v 0.000001 69.693100 77.828079
v -43.238968 69.693085 -64.711693
v 29.783522 69.693085 -71.903786
v 15.183508 69.693100 76.332634
v -55.032768 69.693085 -55.032772
v 15.183508 69.693085 -76.332649
v 29.783522 69.693100 71.903770
v -64.711685 69.693092 -43.238972
v 43.238968 69.693100 64.711678
v -71.903778 69.693092 -29.783527
v 55.032768 69.693100 55.032764
v -76.332642 69.693092 -15.183511
v 64.711685 69.693092 43.238964
v -77.828087 69.693092 -0.000004
v 71.903778 69.693092 29.783516
v -76.332642 69.693092 15.183502
v 76.332642 69.693092 15.183502
v -71.903778 69.693092 29.783516
v 77.828087 34.846546 -0.000002
v -64.711685 34.846550 43.238964
v 0.000001 34.846539 -77.828087
v 76.332642 34.846546 -15.183508
v -55.032768 34.846550 55.032764
v 71.903778 34.846542 -29.783524
v -43.238968 34.846550 64.711685
v 64.711685 34.846542 -43.238972
v -29.783522 34.846550 71.903778
v -15.183505 34.846539 -76.332642
v 55.032768 34.846542 -55.032772
v -15.183505 34.846554 76.332642
v -29.783522 34.846542 -71.903778
v 43.238968 34.846542 -64.711685
v 0.000001 34.846554 77.828087
v -43.238968 34.846542 -64.711685
v 29.783522 34.846542 -71.903778
v 15.183508 34.846554 76.332642
v -55.032768 34.846542 -55.032772
v 15.183508 34.846539 -76.332642
v 29.783522 34.846550 71.903778
v -64.711685 34.846542 -43.238972
v 43.238968 34.846550 64.711685
v -71.903778 34.846542 -29.783524
v 55.032768 34.846550 55.032764
v -76.332642 34.846546 -15.183508
v 64.711685 34.846550 43.238964
v -77.828087 34.846546 -0.000002
v 71.903778 34.846550 29.783520
v -76.332642 34.846546 15.183505
v 76.332642 34.846546 15.183505
v -71.903778 34.846550 29.783520
v 63.970737 68.736893 -12.005726
v 65.226814 68.736893 0.747378
v -46.367203 68.736893 46.971134
v -54.496830 68.736893 37.065147
v 60.250797 68.736893 -24.268744
v -36.461216 68.736900 55.100761
v 54.209930 68.736893 -35.570393
v -25.159565 68.736900 61.141624
v -12.896551 68.736885 -63.366814
v -0.143446 68.736885 -64.622887
v 46.080307 68.736893 -45.476376
v -12.896551 68.736900 64.861565
v -25.159565 68.736885 -59.646873
v 36.174324 68.736885 -53.606007
v -0.143446 68.736900 66.117638
v -36.461216 68.736885 -53.606007
v 24.872671 68.736885 -59.646873
v 12.609659 68.736900 64.861565
v -46.367203 68.736893 -45.476376
v 12.609659 68.736885 -63.366814
v 24.872671 68.736900 61.141624
v -54.496830 68.736893 -35.570393
v 36.174324 68.736900 55.100761
v -60.537697 68.736893 -24.268744
v 46.080307 68.736893 46.971134
v -64.257637 68.736893 -12.005726
v 54.209930 68.736893 37.065147
v -65.513710 68.736893 0.747378
v 60.250797 68.736893 25.763494
v -64.257637 68.736893 13.500484
v 63.970737 68.736893 13.500484
v -60.537697 68.736893 25.763494
v 63.970737 72.375854 -12.005727
v 65.226814 72.375854 0.747378
v -46.367203 72.375854 46.971134
v -54.496830 72.375854 37.065147
v 60.250797 72.375854 -24.268744
v -36.461216 72.375862 55.100761
v 54.209930 72.375854 -35.570393
v -25.159565 72.375862 61.141624
v -12.896551 72.375847 -63.366814
v -0.143446 72.375847 -64.622887
v 46.080307 72.375854 -45.476376
v -12.896551 72.375862 64.861565
v -25.159565 72.375847 -59.646873
v 36.174324 72.375847 -53.606007
v -0.143446 72.375862 66.117638
v -36.461216 72.375847 -53.606007
v 24.872671 72.375847 -59.646873
v 12.609659 72.375862 64.861565
v -46.367203 72.375854 -45.476376
v 12.609659 72.375847 -63.366814
v 24.872671 72.375862 61.141624
v -54.496830 72.375854 -35.570393
v 36.174324 72.375862 55.100761
v -60.537697 72.375854 -24.268744
v 46.080307 72.375854 46.971134
v -64.257637 72.375854 -12.005727
v 54.209930 72.375854 37.065147
v -65.513710 72.375854 0.747378
v 60.250797 72.375854 25.763494
v -64.257637 72.375854 13.500484
v 63.970737 72.375854 13.500484
v -60.537697 72.375854 25.763494
v 66.944572 72.375854 -12.597260
v 68.258919 72.375854 0.747378
v -48.511223 72.375854 49.115154
v -57.017929 72.375854 38.749691
v 63.052094 72.375854 -25.429079
v -38.145760 72.375862 57.621861
v 56.731030 72.375854 -37.254936
v -26.319901 72.375862 63.942921
v -13.488085 72.375847 -66.340652
v -0.143446 72.375847 -67.654991
v 48.224327 72.375854 -47.620396
v -13.488085 72.375862 67.835403
v -26.319901 72.375847 -62.448170
v 37.858868 72.375847 -56.127106
v -0.143446 72.375862 69.149742
v -38.145760 72.375847 -56.127106
v 26.033007 72.375847 -62.448170
v 13.201193 72.375862 67.835403
v -48.511223 72.375854 -47.620396
v 13.201193 72.375847 -66.340652
v 26.033007 72.375862 63.942921
v -57.017929 72.375854 -37.254936
v 37.858868 72.375862 57.621861
v -63.338993 72.375854 -25.429079
v 48.224327 72.375854 49.115154
v -67.231476 72.375854 -12.597260
v 56.731030 72.375854 38.749691
v -68.545815 72.375854 0.747378
v 63.052094 72.375854 26.923830
v -67.231476 72.375854 14.092017
v 66.944572 72.375854 14.092017
v -63.338993 72.375854 26.923830
v 66.944572 68.975082 -12.597260
v 68.258919 68.975082 0.747378
v -48.511223 68.975082 49.115154
v -57.017929 68.975082 38.749691
v 63.052094 68.975082 -25.429079
v -38.145760 68.975090 57.621861
v 56.731030 68.975082 -37.254936
v -26.319901 68.975090 63.942921
v -13.488085 68.975075 -66.340652
v -0.143446 68.975075 -67.654991
v 48.224327 68.975082 -47.620396
v -13.488085 68.975090 67.835403
v -26.319901 68.975075 -62.448170
v 37.858868 68.975075 -56.127106
v -0.143446 68.975090 69.149742
v -38.145760 68.975075 -56.127106
v 26.033007 68.975075 -62.448170
v 13.201193 68.975090 67.835403
v -48.511223 68.975082 -47.620396
v 13.201193 68.975075 -66.340652
v 26.033007 68.975090 63.942921
v -57.017929 68.975082 -37.254936
v 37.858868 68.975090 57.621861
v -63.338993 68.975082 -25.429079
v 48.224327 68.975082 49.115154
v -67.231476 68.975082 -12.597260
v 56.731030 68.975082 38.749691
v -68.545815 68.975082 0.747378
v 63.052094 68.975082 26.923830
v -67.231476 68.975082 14.092018
v 66.944572 68.975082 14.092018
v -63.338993 68.975082 26.923830
vn -0.0000 1.0000 -0.0000
vn -1.0000 -0.0000 -0.0000
vn -0.9808 -0.0000 0.1951
vn 0.8315 -0.0000 -0.5556
vn 0.7071 -0.0000 -0.7071
vn -0.9239 -0.0000 0.3827
vn 0.5556 -0.0000 -0.8315
vn -0.8315 -0.0000 0.5556
vn 0.3827 -0.0000 -0.9239
vn -0.0000 -0.0000 1.0000
vn 0.1951 -0.0000 0.9808
vn -0.7071 -0.0000 0.7071
vn 0.1951 -0.0000 -0.9808
vn 0.3827 -0.0000 0.9239
vn -0.5556 -0.0000 0.8315
vn -0.0000 -0.0000 -1.0000
vn 0.5556 -0.0000 0.8315
vn -0.3827 -0.0000 0.9239
vn -0.1951 -0.0000 -0.9808
vn 0.7071 -0.0000 0.7071
vn -0.1951 -0.0000 0.9808
vn -0.3827 -0.0000 -0.9239
vn 0.8315 -0.0000 0.5556
vn -0.5556 -0.0000 -0.8315
vn 0.9239 -0.0000 0.3827
vn -0.7071 -0.0000 -0.7071
vn 0.9808 -0.0000 0.1951
vn -0.8315 -0.0000 -0.5556
vn 1.0000 -0.0000 -0.0000
vn -0.9239 -0.0000 -0.3827
vn 0.9808 -0.0000 -0.1951
vn -0.9808 -0.0000 -0.1951
vn 0.9239 -0.0000 -0.3827
vn -0.0446 0.9968 -0.0664
vn -0.0442 0.9968 -0.0667
vn -0.0307 0.9967 -0.0746
vn -0.0310 0.9967 -0.0744
vn 0.0140 0.9974 0.0711
vn 0.0142 0.9974 0.0710
vn 0.0001 0.9974 0.0722
vn -0.0000 0.9974 0.0722
vn -0.0141 0.9974 0.0708
vn 0.0312 0.9967 -0.0752
vn 0.0311 0.9967 -0.0752
vn 0.0449 0.9967 -0.0675
vn 0.0451 0.9967 -0.0673
vn 0.0620 0.9972 0.0417
vn 0.0623 0.9972 0.0413
vn 0.0525 0.9973 0.0522
vn 0.0522 0.9973 0.0525
vn 0.0666 0.9968 -0.0442
vn 0.0663 0.9968 -0.0446
vn 0.0731 0.9969 -0.0306
vn 0.0732 0.9969 -0.0301
vn -0.0609 0.9973 0.0409
vn -0.0612 0.9973 0.0406
vn -0.0685 0.9973 0.0281
vn -0.0683 0.9973 0.0285
vn -0.0157 0.9967 -0.0796
vn -0.0159 0.9967 -0.0795
vn -0.0756 0.9971 0.0003
vn -0.0757 0.9971 -0.0003
vn -0.0750 0.9971 -0.0153
vn -0.0751 0.9971 -0.0147
vn 0.0568 0.9967 -0.0571
vn 0.0571 0.9967 -0.0569
vn -0.0277 0.9974 0.0667
vn -0.0276 0.9974 0.0668
vn 0.0768 0.9969 -0.0156
vn 0.0769 0.9969 -0.0150
vn -0.0735 0.9972 0.0143
vn -0.0733 0.9972 0.0148
vn 0.0409 0.9973 0.0609
vn 0.0406 0.9973 0.0611
vn -0.0715 0.9970 -0.0300
vn -0.0717 0.9970 -0.0294
vn 0.0001 0.9967 -0.0814
vn -0.0001 0.9967 -0.0814
vn 0.0774 0.9970 -0.0003
vn 0.0774 0.9970 0.0003
vn -0.0404 0.9974 0.0602
vn -0.0402 0.9974 0.0603
vn -0.0650 0.9969 -0.0438
vn -0.0653 0.9969 -0.0433
vn 0.0280 0.9973 0.0672
vn 0.0277 0.9973 0.0673
vn 0.0751 0.9971 0.0146
vn 0.0750 0.9971 0.0152
vn 0.0159 0.9967 -0.0799
vn -0.0558 0.9969 -0.0562
vn -0.0562 0.9969 -0.0558
vn -0.0516 0.9973 0.0514
vn -0.0514 0.9973 0.0516
vn 0.0700 0.9971 0.0287
vn 0.0697 0.9971 0.0292
vt 0.000000 0.000000
s 1
f 2/1/1 3/1/1 4/1/1 5/1/1 6/1/1 7/1/1 8/1/1 9/1/1 10/1/1 11/1/1 12/1/1 13/1/1 14/1/1 15/1/1 16/1/1 17/1/1 18/1/1 19/1/1 20/1/1 21/1/1 22/1/1 23/1/1 24/1/1 25/1/1 26/1/1 27/1/1 28/1/1 29/1/1 30/1/1 31/1/1 32/1/1 1/1/1
f 66/1/2 57/1/2 58/1/3 65/1/3
f 68/1/4 44/1/4 45/1/5 67/1/5
f 65/1/3 58/1/3 59/1/6 69/1/6
f 67/1/5 45/1/5 46/1/7 70/1/7
f 69/1/6 59/1/6 60/1/8 71/1/8
f 70/1/7 46/1/7 47/1/9 72/1/9
f 74/1/10 33/1/10 34/1/11 73/1/11
f 71/1/8 60/1/8 61/1/12 75/1/12
f 72/1/9 47/1/9 48/1/13 76/1/13
f 73/1/11 34/1/11 35/1/14 77/1/14
f 75/1/12 61/1/12 62/1/15 78/1/15
f 76/1/13 48/1/13 49/1/16 79/1/16
f 77/1/14 35/1/14 36/1/17 80/1/17
f 78/1/15 62/1/15 63/1/18 81/1/18
f 79/1/16 49/1/16 50/1/19 82/1/19
f 80/1/17 36/1/17 37/1/20 83/1/20
f 81/1/18 63/1/18 64/1/21 84/1/21
f 82/1/19 50/1/19 51/1/22 85/1/22
f 83/1/20 37/1/20 38/1/23 86/1/23
f 84/1/21 64/1/21 33/1/10 74/1/10
f 85/1/22 51/1/22 52/1/24 87/1/24
f 86/1/23 38/1/23 39/1/25 88/1/25
f 87/1/24 52/1/24 53/1/26 89/1/26
f 88/1/25 39/1/25 40/1/27 90/1/27
f 89/1/26 53/1/26 54/1/28 91/1/28
f 90/1/27 40/1/27 41/1/29 92/1/29
f 91/1/28 54/1/28 55/1/30 93/1/30
f 92/1/29 41/1/29 42/1/31 94/1/31
f 93/1/30 55/1/30 56/1/32 95/1/32
f 94/1/31 42/1/31 43/1/33 96/1/33
f 95/1/32 56/1/32 57/1/2 66/1/2
f 96/1/33 43/1/33 44/1/4 68/1/4
f 128/1/33 96/1/33 68/1/4 98/1/4
f 127/1/32 95/1/32 66/1/2 97/1/2
f 126/1/31 94/1/31 96/1/33 128/1/33
f 125/1/30 93/1/30 95/1/32 127/1/32
f 124/1/29 92/1/29 94/1/31 126/1/31
f 123/1/28 91/1/28 93/1/30 125/1/30
f 122/1/27 90/1/27 92/1/29 124/1/29
f 121/1/26 89/1/26 91/1/28 123/1/28
f 120/1/25 88/1/25 90/1/27 122/1/27
f 119/1/24 87/1/24 89/1/26 121/1/26
f 118/1/23 86/1/23 88/1/25 120/1/25
f 117/1/22 85/1/22 87/1/24 119/1/24
f 116/1/21 84/1/21 74/1/10 99/1/10
f 115/1/20 83/1/20 86/1/23 118/1/23
f 114/1/19 82/1/19 85/1/22 117/1/22
f 113/1/18 81/1/18 84/1/21 116/1/21
f 112/1/17 80/1/17 83/1/20 115/1/20
f 111/1/16 79/1/16 82/1/19 114/1/19
f 110/1/15 78/1/15 81/1/18 113/1/18
f 109/1/14 77/1/14 80/1/17 112/1/17
f 108/1/13 76/1/13 79/1/16 111/1/16
f 107/1/12 75/1/12 78/1/15 110/1/15
f 106/1/11 73/1/11 77/1/14 109/1/14
f 105/1/9 72/1/9 76/1/13 108/1/13
f 104/1/8 71/1/8 75/1/12 107/1/12
f 99/1/10 74/1/10 73/1/11 106/1/11
f 103/1/7 70/1/7 72/1/9 105/1/9
f 102/1/6 69/1/6 71/1/8 104/1/8
f 101/1/5 67/1/5 70/1/7 103/1/7
f 100/1/3 65/1/3 69/1/6 102/1/6
f 98/1/4 68/1/4 67/1/5 101/1/5
f 97/1/2 66/1/2 65/1/3 100/1/3
f 25/1/2 97/1/2 100/1/3 26/1/3
f 12/1/4 98/1/4 101/1/5 13/1/5
f 26/1/3 100/1/3 102/1/6 27/1/6
f 13/1/5 101/1/5 103/1/7 14/1/7
f 27/1/6 102/1/6 104/1/8 28/1/8
f 14/1/7 103/1/7 105/1/9 15/1/9
f 1/1/10 99/1/10 106/1/11 2/1/11
f 28/1/8 104/1/8 107/1/12 29/1/12
f 15/1/9 105/1/9 108/1/13 16/1/13
f 2/1/11 106/1/11 109/1/14 3/1/14
f 29/1/12 107/1/12 110/1/15 30/1/15
f 16/1/13 108/1/13 111/1/16 17/1/16
f 3/1/14 109/1/14 112/1/17 4/1/17
f 30/1/15 110/1/15 113/1/18 31/1/18
f 17/1/16 111/1/16 114/1/19 18/1/19
f 4/1/17 112/1/17 115/1/20 5/1/20
f 31/1/18 113/1/18 116/1/21 32/1/21
f 18/1/19 114/1/19 117/1/22 19/1/22
f 5/1/20 115/1/20 118/1/23 6/1/23
f 32/1/21 116/1/21 99/1/10 1/1/10
f 19/1/22 117/1/22 119/1/24 20/1/24
f 6/1/23 118/1/23 120/1/25 7/1/25
f 20/1/24 119/1/24 121/1/26 21/1/26
f 7/1/25 120/1/25 122/1/27 8/1/27
f 21/1/26 121/1/26 123/1/28 22/1/28
f 8/1/27 122/1/27 124/1/29 9/1/29
f 22/1/28 123/1/28 125/1/30 23/1/30
f 9/1/29 124/1/29 126/1/31 10/1/31
f 23/1/30 125/1/30 127/1/32 24/1/32
f 10/1/31 126/1/31 128/1/33 11/1/33
f 24/1/32 127/1/32 97/1/2 25/1/2
f 11/1/33 128/1/33 98/1/4 12/1/4
f 87/1/34 151/1/35 149/1/36 85/1/37
f 73/1/38 137/1/39 138/1/40 74/1/41
f 74/1/41 138/1/40 148/1/42 84/1/42
f 72/1/43 136/1/44 134/1/45 70/1/46
f 86/1/47 150/1/48 147/1/49 83/1/50
f 68/1/51 132/1/52 160/1/53 96/1/54
f 71/1/55 135/1/56 133/1/57 69/1/58
f 85/1/37 149/1/36 146/1/59 82/1/60
f 66/1/61 130/1/62 159/1/63 95/1/64
f 70/1/46 134/1/45 131/1/65 67/1/66
f 84/1/42 148/1/42 145/1/67 81/1/68
f 96/1/54 160/1/53 158/1/69 94/1/70
f 69/1/58 133/1/57 129/1/71 65/1/72
f 83/1/50 147/1/49 144/1/73 80/1/74
f 95/1/64 159/1/63 157/1/75 93/1/76
f 67/1/66 131/1/65 132/1/52 68/1/51
f 82/1/60 146/1/59 143/1/77 79/1/78
f 94/1/70 158/1/69 156/1/79 92/1/80
f 65/1/72 129/1/71 130/1/62 66/1/61
f 81/1/68 145/1/67 142/1/81 78/1/82
f 93/1/76 157/1/75 155/1/83 91/1/84
f 80/1/74 144/1/73 141/1/85 77/1/86
f 92/1/80 156/1/79 154/1/87 90/1/88
f 79/1/78 143/1/77 140/1/89 76/1/89
f 91/1/84 155/1/83 153/1/90 89/1/91
f 78/1/82 142/1/81 139/1/92 75/1/93
f 90/1/88 154/1/87 152/1/94 88/1/95
f 77/1/86 141/1/85 137/1/39 73/1/38
f 89/1/91 153/1/90 151/1/35 87/1/34
f 76/1/89 140/1/89 136/1/44 72/1/43
f 88/1/95 152/1/94 150/1/48 86/1/47
f 75/1/93 139/1/92 135/1/56 71/1/55
f 138/1/10 148/1/21 180/1/21 170/1/10
f 136/1/9 134/1/7 166/1/7 168/1/9
f 150/1/23 147/1/20 179/1/20 182/1/23
f 132/1/4 160/1/33 192/1/33 164/1/4
f 135/1/8 133/1/6 165/1/6 167/1/8
f 149/1/22 146/1/19 178/1/19 181/1/22
f 130/1/2 159/1/32 191/1/32 162/1/2
f 134/1/7 131/1/5 163/1/5 166/1/7
f 148/1/21 145/1/18 177/1/18 180/1/21
f 160/1/33 158/1/31 190/1/31 192/1/33
f 133/1/6 129/1/3 161/1/3 165/1/6
f 147/1/20 144/1/17 176/1/17 179/1/20
f 159/1/32 157/1/30 189/1/30 191/1/32
f 131/1/5 132/1/4 164/1/4 163/1/5
f 146/1/19 143/1/16 175/1/16 178/1/19
f 158/1/31 156/1/29 188/1/29 190/1/31
f 129/1/3 130/1/2 162/1/2 161/1/3
f 145/1/18 142/1/15 174/1/15 177/1/18
f 157/1/30 155/1/28 187/1/28 189/1/30
f 144/1/17 141/1/14 173/1/14 176/1/17
f 156/1/29 154/1/27 186/1/27 188/1/29
f 143/1/16 140/1/13 172/1/13 175/1/16
f 155/1/28 153/1/26 185/1/26 187/1/28
f 142/1/15 139/1/12 171/1/12 174/1/15
f 154/1/27 152/1/25 184/1/25 186/1/27
f 141/1/14 137/1/11 169/1/11 173/1/14
f 153/1/26 151/1/24 183/1/24 185/1/26
f 140/1/13 136/1/9 168/1/9 172/1/13
f 152/1/25 150/1/23 182/1/23 184/1/25
f 139/1/12 135/1/8 167/1/8 171/1/12
f 151/1/24 149/1/22 181/1/22 183/1/24
f 137/1/11 138/1/10 170/1/10 169/1/11
f 180/1/1 177/1/1 209/1/1 212/1/1
f 192/1/1 190/1/1 222/1/1 224/1/1
f 165/1/1 161/1/1 193/1/1 197/1/1
f 179/1/1 176/1/1 208/1/1 211/1/1
f 191/1/1 189/1/1 221/1/1 223/1/1
f 163/1/1 164/1/1 196/1/1 195/1/1
f 178/1/1 175/1/1 207/1/1 210/1/1
f 190/1/1 188/1/1 220/1/1 222/1/1
f 161/1/1 162/1/1 194/1/1 193/1/1
f 177/1/1 174/1/1 206/1/1 209/1/1
f 189/1/1 187/1/1 219/1/1 221/1/1
f 176/1/1 173/1/1 205/1/1 208/1/1
f 188/1/1 186/1/1 218/1/1 220/1/1
f 175/1/1 172/1/1 204/1/1 207/1/1
f 187/1/1 185/1/1 217/1/1 219/1/1
f 174/1/1 171/1/1 203/1/1 206/1/1
f 186/1/1 184/1/1 216/1/1 218/1/1
f 173/1/1 169/1/1 201/1/1 205/1/1
f 185/1/1 183/1/1 215/1/1 217/1/1
f 172/1/1 168/1/1 200/1/1 204/1/1
f 184/1/1 182/1/1 214/1/1 216/1/1
f 171/1/1 167/1/1 199/1/1 203/1/1
f 183/1/1 181/1/1 213/1/1 215/1/1
f 169/1/1 170/1/1 202/1/1 201/1/1
f 170/1/1 180/1/1 212/1/1 202/1/1
f 168/1/1 166/1/1 198/1/1 200/1/1
f 182/1/1 179/1/1 211/1/1 214/1/1
f 164/1/1 192/1/1 224/1/1 196/1/1
f 167/1/1 165/1/1 197/1/1 199/1/1
f 181/1/1 178/1/1 210/1/1 213/1/1
f 162/1/1 191/1/1 223/1/1 194/1/1
f 166/1/1 163/1/1 195/1/1 198/1/1
f 209/1/9 206/1/7 238/1/7 241/1/9
f 221/1/25 219/1/23 251/1/23 253/1/25
f 208/1/24 205/1/22 237/1/22 240/1/24
f 220/1/2 218/1/32 250/1/32 252/1/2
f 207/1/10 204/1/21 236/1/21 239/1/10
f 219/1/23 217/1/20 249/1/20 251/1/23
f 206/1/7 203/1/5 235/1/5 238/1/7
f 218/1/32 216/1/30 248/1/30 250/1/32
f 205/1/22 201/1/19 233/1/19 237/1/22
f 217/1/20 215/1/17 247/1/17 249/1/20
f 204/1/21 200/1/18 232/1/18 236/1/21
f 216/1/30 214/1/28 246/1/28 248/1/30
f 203/1/5 199/1/4 231/1/4 235/1/5
f 215/1/17 213/1/14 245/1/14 247/1/17
f 201/1/19 202/1/16 234/1/16 233/1/19
f 202/1/16 212/1/13 244/1/13 234/1/16
f 200/1/18 198/1/15 230/1/15 232/1/18
f 214/1/28 211/1/26 243/1/26 246/1/28
f 196/1/8 224/1/6 256/1/6 228/1/8
f 199/1/4 197/1/33 229/1/33 231/1/4
f 213/1/14 210/1/11 242/1/11 245/1/14
f 194/1/29 223/1/27 255/1/27 226/1/29
f 198/1/15 195/1/12 227/1/12 230/1/15
f 212/1/13 209/1/9 241/1/9 244/1/13
f 224/1/6 222/1/3 254/1/3 256/1/6
f 197/1/33 193/1/31 225/1/31 229/1/33
f 211/1/26 208/1/24 240/1/24 243/1/26
f 223/1/27 221/1/25 253/1/25 255/1/27
f 195/1/12 196/1/8 228/1/8 227/1/12
f 210/1/11 207/1/10 239/1/10 242/1/11
f 222/1/3 220/1/2 252/1/2 254/1/3
f 193/1/31 194/1/29 226/1/29 225/1/31
